<svg xmlns="http://www.w3.org/2000/svg" width="32" height="32" id="cross"><path d="M13.5 2a.5.5 0 0 0-.5.5V8H6.5a.5.5 0 0 0-.5.5v4a.5.5 0 0 0 .5.5H13v16.5a.5.5 0 0 0 .5.5h4a.5.5 0 0 0 .5-.5V13h6.5a.5.5 0 0 0 .5-.5v-4a.5.5 0 0 0-.5-.5H18V2.5a.5.5 0 0 0-.5-.5h-4zm.5 1h3v5.5a.5.5 0 0 0 .5.5H24v3h-6.5a.5.5 0 0 0-.5.5V29h-3V12.5a.5.5 0 0 0-.5-.5H7V9h6.5a.5.5 0 0 0 .5-.5V3zm1 3v1h1V6h-1zm0 2v1h1V8h-1zm-4 2v1h1v-1h-1zm2 0v1h1v-1h-1zm2 0v1h1v-1h-1zm2 0v1h1v-1h-1zm2 0v1h1v-1h-1zm-4 2v1h1v-1h-1zm0 2v1h1v-1h-1zm0 2v1h1v-1h-1zm0 2v1h1v-1h-1zm0 2v1h1v-1h-1zm0 2v1h1v-1h-1zm0 2v1h1v-1h-1z" color="#000" font-family="sans-serif" font-weight="400" overflow="visible" style="line-height:normal;text-indent:0;text-align:start;text-decoration-line:none;text-decoration-style:solid;text-decoration-color:#000;text-transform:none;block-progression:tb;white-space:normal;isolation:auto;mix-blend-mode:normal;solid-color:#000;solid-opacity:1"></path></svg>